<svg xmlns="http://www.w3.org/2000/svg" width="742" height="272" viewBox="0 0 742 272">
<g transform="translate(36.00,182.00) scale(0.20000)">
<path d="M110.0 0 40.0 -496H165.0L209.0 -85H227.0L291.0 -496H493.0L557.0 -85H575.0L619.0 -496H744.0L674.0 0H465.0L401.0 -411H383.0L319.0 0Z M844.0 0V-700H970.0V-435H988.0Q996.0 -451 1013.0 -467.0Q1030.0 -483 1058.5 -493.5Q1087.0 -504 1131.0 -504Q1189.0 -504 1232.5 -477.5Q1276.0 -451 1300.0 -404.5Q1324.0 -358 1324.0 -296V0H1198.0V-286Q1198.0 -342 1170.5 -370.0Q1143.0 -398 1092.0 -398Q1034.0 -398 1002.0 -359.5Q970.0 -321 970.0 -252V0Z M1450.0 0V-496H1576.0V0ZM1513.0 -554Q1479.0 -554 1455.5 -576.0Q1432.0 -598 1432.0 -634Q1432.0 -670 1455.5 -692.0Q1479.0 -714 1513.0 -714Q1548.0 -714 1571.0 -692.0Q1594.0 -670 1594.0 -634Q1594.0 -598 1571.0 -576.0Q1548.0 -554 1513.0 -554Z M1896.0 0Q1847.0 0 1816.5 -30.5Q1786.0 -61 1786.0 -112V-392H1662.0V-496H1786.0V-650H1912.0V-496H2048.0V-392H1912.0V-134Q1912.0 -104 1940.0 -104H2036.0V0Z M2342.0 0Q2293.0 0 2262.5 -30.5Q2232.0 -61 2232.0 -112V-392H2108.0V-496H2232.0V-650H2358.0V-496H2494.0V-392H2358.0V-134Q2358.0 -104 2386.0 -104H2482.0V0Z M2598.0 0V-700H2724.0V0Z M3080.0 14Q3006.0 14 2949.5 -17.5Q2893.0 -49 2861.5 -106.5Q2830.0 -164 2830.0 -242V-254Q2830.0 -332 2861.0 -389.5Q2892.0 -447 2948.0 -478.5Q3004.0 -510 3078.0 -510Q3151.0 -510 3205.0 -477.5Q3259.0 -445 3289.0 -387.5Q3319.0 -330 3319.0 -254V-211H2958.0Q2960.0 -160 2996.0 -128.0Q3032.0 -96 3084.0 -96Q3137.0 -96 3162.0 -119.0Q3187.0 -142 3200.0 -170L3303.0 -116Q3289.0 -90 3262.5 -59.5Q3236.0 -29 3192.0 -7.5Q3148.0 14 3080.0 14ZM2959.0 -305H3191.0Q3187.0 -348 3156.5 -374.0Q3126.0 -400 3077.0 -400Q3026.0 -400 2996.0 -374.0Q2966.0 -348 2959.0 -305Z" fill="#DCE3DC"/>
</g>
</svg>
